<?xml version="1.0" encoding="UTF-8" standalone="no"?><!DOCTYPE svg PUBLIC "-//W3C//DTD SVG 1.1//EN" "http://www.w3.org/Graphics/SVG/1.1/DTD/svg11.dtd"><svg width="100%" height="100%" viewBox="0 0 480 480" version="1.1" xmlns="http://www.w3.org/2000/svg" xmlns:xlink="http://www.w3.org/1999/xlink" xml:space="preserve" xmlns:serif="http://www.serif.com/" style="fill-rule:evenodd;clip-rule:evenodd;stroke-linejoin:round;stroke-miterlimit:2;"><g><g><path d="M202.861,48.935c-1.455,0.755 -2.91,1.51 -4.365,2.265c-0.837,1.73 -1.602,3.494 -2.44,5.224c-3.637,7.512 -7.826,5.372 -11.122,6.053c-5.029,1.038 -4.294,2.264 -6.335,6.914c-3.322,7.57 -8.255,5.532 -11.053,6.167c-4.917,1.116 -4.202,2.279 -6.323,6.86c-2.545,5.498 -3.355,5.486 -15.093,7.03c-6.054,0.797 -6.473,-0.534 -11.561,2.867c-3.18,2.126 -2.248,2.759 -3.905,7.413c-2.667,7.49 -8.509,4.188 -13.043,9.809c-5.799,7.189 -10.778,4.131 -15.59,5.016c-11.668,2.148 -1.387,7.568 -1.292,19.438c0.056,6.944 -1.947,7.418 0.046,9.231c1.823,1.659 23.124,0.814 28.436,3.296c1.049,0.49 1.789,1.512 2.837,2.005c7.657,3.611 10.569,0.271 18.613,0.627c11.716,0.518 14.068,-0.384 17.756,10.753c0.338,1.02 1.323,3.996 1.308,13.361c-0.015,9.008 -1.384,10.492 -10.356,10.362c-10.076,-0.146 -8.679,-3.665 -17.733,-10.193c-4.103,-2.958 -2.382,-4.829 -2.894,-5.458c-3.708,-4.553 -5.132,-5.995 -9.058,-1.612c-0.429,0.479 -0.138,1.656 -0.771,1.769c-0.687,0.122 -0.482,-0.958 -8.62,-1.32c-11.411,-0.507 -14.574,0.013 -15.404,-11.341c-0.115,-1.578 0.867,-3.664 -0.295,-4.737c-0.243,-0.224 -7.98,-2.093 -23.434,-1.456c-1.504,0.062 -3.227,0.89 -4.515,0.11c-1.709,-1.035 4.076,-4.133 -4.376,-13.967c-1.946,0.404 -1.822,-1.049 -3.787,-0.641c-0.26,0.054 -1.311,0.272 -2.658,1.979c-1.044,1.323 1.446,9.449 1.689,10.243c3.1,10.118 3.354,10.399 0.751,17.65c-3.182,8.864 -4.867,7.877 -4.98,8.669c-0.205,1.44 2.521,0.797 2.612,8.642c0.248,21.26 -1.016,24.304 -1.823,26.248c-2.538,6.114 -4.668,3.59 -4.834,4.067c-0.523,1.505 3.089,4.837 3.455,5.175c4.367,4.028 4.988,3.106 5.319,3.493c3.396,3.97 1.898,24.009 1.949,26.297c0.021,0.926 0.205,9.242 -3.72,10.959c-3.921,1.716 -16.601,-2.194 -17.991,-2.622c-0.682,-6.481 -0.499,-6.475 -2.295,-12.747c-1.176,-4.105 -1.679,-13.383 -2.902,-17.776c-0.382,-1.374 -1.048,-2.654 -1.493,-4.009c-2.588,-7.876 -1.832,-28.095 -1.74,-30.54c0.356,-9.506 -1.139,-9.765 2.18,-17.258c6.115,-13.803 -2.153,-15.084 -1.927,-52.46c0.067,-11.154 3.726,-10.585 14.823,-10.243c8.322,0.257 11.972,2.393 13.066,1.736c1.013,-0.609 0.305,-2.383 0.808,-3.453c0.375,-0.797 1.273,-1.239 1.749,-1.981c2.445,-3.811 1.938,-4.808 6.374,-5.595c2.922,-0.519 5.963,0.187 8.899,-0.245c5.179,-0.762 4.268,-2.265 6.448,-6.992c2.875,-6.234 4.24,-4.946 10.991,-6.102c7.76,-1.33 5.835,-6.025 12.258,-7.844c1.617,-0.458 3.339,-0.404 4.992,-0.709c6.607,-1.217 9.107,-4.955 9.618,-5.278c0.95,-0.6 2.427,-0.224 3.21,-1.031c0.327,-0.337 -0.438,-0.642 2.236,-5.422c5.404,-9.661 10.879,-2.167 17.495,-9.571c5.267,-5.894 6.439,-3.79 11.148,-4.921c4.893,-1.175 4.985,-1.741 6.128,-6.617c0.339,-1.447 -0.059,-3.006 0.292,-4.451c1.272,-5.241 5.685,-6.001 6.382,-6.122c7.586,-1.307 7.626,1.471 15.231,0.199c2.985,-0.499 5.71,-10.777 6.11,-11.173c3.919,-3.881 16.668,-2.61 17.292,-2.492c1.738,0.329 3.372,1.082 5.097,1.474c7.543,1.713 24.414,-4.105 30.094,1.117c3.708,3.408 0.732,5.065 4.083,8.938c0.71,0.821 7.457,2.469 12.087,5.894c6.023,4.456 6.584,3.125 13.994,3.87c11.361,1.143 11.031,2.258 13.483,2.891c-0.019,1.438 0.611,2.835 0.592,4.272c-0.021,1.572 -0.587,3.095 -0.71,4.662c-1.12,14.2 0.853,14.75 -0.245,15.286c-1.888,0.922 -2.019,0.284 -26.26,-0.344c-10.129,-0.262 -9.423,-4.086 -11.447,-7.137c-2.99,-4.506 -8.809,-4.45 -9.641,-4.714c-2.187,-0.693 -10.444,-5.123 -13.514,-5.506c-2.916,-0.364 -5.886,0.012 -8.811,-0.266c-1.489,-0.141 -2.95,-0.541 -4.379,-0.986c-8.442,-2.63 -8.382,-2.871 -17.194,-3.007Z" style="fill-opacity:0.61;"/><path d="M294.022,407.672c5.169,-6.562 4.682,-6.871 5.204,-7.37c6.066,-5.796 9.294,-0.398 14.769,-6.771c11.222,-13.064 22.202,-8.211 28.433,-9.909c5.393,-1.47 4.741,-6.603 13.003,-8.203c1.56,-0.302 3.195,-0.015 4.758,-0.304c4.96,-0.915 4.563,-1.88 6.36,-6.614c0.51,-1.345 0.815,-2.779 1.489,-4.05c2.116,-3.991 3.86,-1.889 10.213,-6.711c7.711,-5.852 18.736,-3.482 21,-5.839c1.981,-2.062 -0.435,-5.367 6.514,-11.138c1.822,-1.513 8.256,-8.96 8.177,-14.667c-0.02,-1.429 -0.231,-16.641 -0.066,-17.862c0.23,-1.706 1.71,-3.135 1.758,-4.855c0.127,-4.608 -1.943,-3.741 -1.816,-4.074c0.529,-1.39 1.87,-2.559 1.88,-4.046c0.003,-0.517 -2.056,-2.81 -1.882,-9.003c0.326,-11.579 -0.543,-15.67 11.053,-15.361c8.313,0.221 13.849,0.471 15.286,6.903c0.148,0.66 -0.147,0.576 0.075,8.458c0.174,6.193 -1.885,8.486 -1.882,9.003c0.029,4.399 1.723,3.819 1.578,4.143c-2.728,6.121 0.287,6.315 0.301,13.012c0.022,11.1 -2.27,13.252 -3.512,17.202c-3.931,12.498 7.345,36.206 -20.542,36.921c-9.37,0.24 -8.768,2.414 -11.239,7.583c-3.875,8.108 -8.24,3.879 -12.991,9.587c-3.49,4.194 -3.914,4.354 -10.564,4.593c-9.524,0.343 -8.939,2.505 -11.287,7.619c-1.764,3.844 -1.621,4.368 -5.735,5.311c-1.972,0.452 -10.609,-0.922 -14.042,2.076c-2.384,2.083 -1.351,2.891 -3.68,4.96c-6.53,5.803 -20.363,6.056 -22.528,8.113c-3.647,3.466 2.739,8.46 -8.796,16.863c-5.512,4.015 -6.22,3.789 -7.527,9.871c-2.47,11.491 -11.455,3.045 -12.178,2.365c-6.372,-5.99 -7.557,-1.324 -18.79,-0.74c-13.181,0.685 -8.784,7.255 -13.129,11.132c-3.025,2.699 -16.206,2.811 -20.285,-1.216c-4.569,-4.512 -2.725,-5.356 -1.767,-11.661c1.783,-11.731 0.088,-11.873 0.596,-12.76c1.86,-3.249 2.915,-1.606 16.843,-2.264c12.242,-0.579 3.228,-12.529 3.012,-24.157c-0.24,-12.925 -2.477,-18.011 10.416,-18.262c7.171,-0.14 14.665,-0.785 14.855,9.212c0.183,9.621 -0.441,10.063 0.957,10.897c1.733,1.034 3.976,0.978 5.709,2.012Z" style="fill-opacity:0.69;"/><path d="M46.632,277.647c0.853,-0.241 1.483,-1.028 2.336,-1.268c4.268,-1.205 19.726,-3.104 23.392,1.158c4.534,5.27 0.563,30.035 3.377,39.541c4.526,15.292 3.61,15.489 8.544,30.659c3.793,11.663 11.788,11.254 14.325,16.796c2.846,6.216 0.64,10.499 12.822,10.812c9.705,0.249 9.618,0.727 17.134,3.169c9.211,2.992 12.721,-1.549 19.471,5.966c2.524,2.811 2.843,2.315 6.363,3.829c4.396,1.89 4.751,1.702 6.836,6.094c2.162,4.555 1.426,5.743 6.354,6.835c5.982,1.325 9.691,-2.938 15.673,5.557c6.096,8.657 16.072,1.991 23.495,6.436c3.732,2.235 2.567,5.39 13.491,5.631c9.006,0.199 11.604,-2.407 14.692,6.139c1.288,3.565 -0.86,3.458 -1.453,9.253c-1.05,10.246 0.371,10.384 -0.111,11.133c-0.817,1.267 -3.013,-0.136 -4.521,-0.154c-14.017,-0.166 -14.012,-0.512 -21.299,-3.103c-8.644,-3.072 -19.596,-0.351 -22.089,-3.514c-2.011,-2.551 -2.284,-6.206 -4.327,-8.732c-1.063,-1.314 -2.883,-1.946 -4.547,-2.239c-2.816,-0.496 -5.719,-0.014 -8.578,-0.074c-0.714,-0.015 -7.302,-0.153 -8.709,-1.964c-2.001,-2.576 -2.211,-6.268 -4.25,-8.813c-3.049,-3.806 -3.907,-2.127 -8.814,-2.295c-7.206,-0.247 -7.365,-0.623 -10.782,-4.763c-0.835,-1.012 -1.95,-2.362 -14.905,-6.835c-4.948,-1.708 -15.989,-1.427 -17.829,-3.405c-3.412,-3.669 -0.764,-5.209 -4.296,-8.761c-6.817,-6.856 -9.701,0.743 -26.863,-6.586c-13.9,-5.936 -19.296,-4.027 -18.962,-15.205c0.535,-17.957 4.724,-16.936 4.639,-18.456c-0.07,-1.249 -1.017,-2.286 -1.49,-3.444c-2.894,-7.095 -2.801,-10.354 -3.32,-13.192c-1.828,-10.012 -4.123,-9.607 -4.193,-21.488c-0.141,-23.868 -1.302,-30.2 -1.607,-34.718Z" style="fill-opacity:0.67;"/><path d="M342.213,62.008c6.639,0.393 6.747,-0.563 13.097,1.662c6.287,2.204 6.253,2.359 12.948,2.666c1.067,0.049 11.794,0.541 13.172,2.221c1.305,1.592 0.49,4.564 2.142,5.792c0.787,0.585 21.294,0.7 28.299,2.763c21.274,6.263 28.509,2.114 28.101,17.672c-0.25,9.544 0.396,12.938 0.234,17.438c-0.625,17.345 -1.916,17.159 -1.999,17.591c-8.368,-0.159 -8.339,0.02 -9.036,-0.172c-1.787,-0.491 -3.05,-2.251 -4.838,-2.743c-2.317,0.404 -2.792,-2.115 -8.749,1.524c-2.39,1.46 -2.176,2.912 -8.189,5.442c-9.368,3.942 -7.214,6.832 -14.075,11.664c-3.949,2.781 -4.082,2.503 -7.853,5.595c-11.769,9.652 -17.156,3.273 -21.772,8.682c-3.4,3.984 0.708,10.721 -12.928,11.28c-12.008,0.493 -10.454,4.601 -12.875,6.494c-1.46,1.142 -3.365,1.557 -5.079,2.263c-3.56,1.465 -3.87,1 -6.4,3.838c-4.38,4.914 -6.213,4.8 -14.787,4.469c-11.463,-0.443 -11.434,-3.747 -10.721,-15.166c0.7,-11.206 4.344,-9.35 11.295,-12.006c3.085,-1.179 3.648,-3.887 12.566,-5.011c6.691,-0.844 7.255,-0.555 11.031,-6.069c5.07,-7.402 10.131,-4.639 15.513,-5.729c1.385,-0.28 3.078,-0.353 3.989,-1.433c2.083,-2.473 2.47,-6.069 4.471,-8.608c0.961,-1.219 7.613,-4.28 13.529,-7.667c7.572,-4.334 14.164,-2.524 16.831,-5.418c3.431,-3.724 0.433,-5.581 4.347,-8.756c1.865,-1.513 13.435,-0.884 14.048,-4.246c1.244,-6.82 -9.173,-7.446 -10.183,-7.506c-6.241,-0.375 -7.605,0.653 -9.858,-5.195c-1.768,-4.588 -2.382,-4.479 -7.214,-5.009c-1.05,-0.115 -0.651,2.122 -12.983,2.423c-12.534,0.305 -11.973,-10.127 -13.712,-10.573c-0.648,-0.166 -0.414,1.398 -8.206,1.573c-4.836,0.108 -5.447,1.98 -8.963,-1.368c-0.988,-0.941 -1.14,-2.656 -0.886,-3.997c0.382,-2.021 2.136,-3.572 2.691,-5.552c0.277,-0.989 -0.527,-2.073 -0.275,-3.068c0.165,-0.653 0.243,-0.575 3.276,-7.761Z" style="fill-opacity:0.61;"/><path d="M279.355,241.567c-1.246,0.129 -15.21,1.574 -15.577,1.623c-2.361,0.309 -10.494,3.457 -10.957,-9.186c-0.296,-8.09 1.258,-12.333 1.628,-13.342c0.45,-1.228 1.698,-2.205 1.746,-3.512c0.06,-1.644 -1.1,-3.111 -1.446,-4.72c-0.978,-4.543 0.765,-7.864 -7.715,-10.874c-10.895,-3.868 -12.199,-4.026 -13.306,-4.159c-7.072,-0.854 -10.703,0.313 -10.8,-11.172c-0.095,-11.199 -0.895,-15.034 10.329,-15.094c13.406,-0.072 12.629,3.355 21.939,5.923c4.953,1.366 5.054,0.999 9.291,3.826c7.623,5.085 16.544,0.673 18.492,9.219c0.314,1.379 0.518,8.385 0.539,9.115c0.18,6.189 -1.925,8.37 -1.945,8.942c-0.052,1.474 1.727,2.67 1.568,4.136c-0.194,1.787 -2.381,2.969 -2.532,4.76c-0.086,1.022 2.323,0.602 2.028,12.663c-0.23,9.39 -2.047,8.913 -3.282,11.854Z" style="fill-opacity:0.64;"/><path d="M283.335,303.583c4.259,17.121 5.565,17.424 1.066,34.477c-2.165,8.206 -1.691,10.588 -11.83,11.158c-0.682,0.038 -7.751,0.436 -8.53,0.236c-7.736,-1.989 -6.598,-9.589 -6.394,-15.261c0.189,-5.249 1.658,-14.327 1.3,-17.194c-0.132,-1.055 -1.227,-2.42 -1.486,-8.833c-0.551,-13.657 -3.11,-19.206 10.634,-19.432c11.268,-0.185 14.758,-0.728 15.156,10.522c0.051,1.442 0.033,2.886 0.084,4.329Z" style="fill-opacity:0.72;"/><path d="M424.334,126.898c1.787,0.491 3.05,2.251 4.838,2.743c0.697,0.192 0.668,0.013 9.036,0.172c1.636,4.109 1.894,4.055 1.756,4.409c-2.394,6.1 0.474,6.233 0.323,12.808c-0.29,12.56 -1.847,12.324 -1.835,13.407c0.017,1.521 1.457,2.785 1.515,4.306c0.047,1.245 -1.258,2.289 -1.218,3.535c0.056,1.75 1.207,3.309 1.493,5.037c0.37,2.228 -0.428,16.273 0.004,34.552c0.143,6.035 -1.918,8.153 -2.107,8.959c-7.289,-0.348 -8.964,1.463 -12.074,-5.093c-3.492,-7.363 -3.743,-20.522 -1.921,-25.885c0.105,-0.309 1.901,-3.196 2.491,-8.016c0.181,-1.483 -0.029,-3.006 0.241,-4.475c0.319,-1.73 1.454,-3.298 1.513,-5.057c0.042,-1.252 -1.266,-2.301 -1.222,-3.553c0.053,-1.522 1.486,-2.794 1.499,-4.317c0.009,-1.082 -1.573,-0.871 -1.848,-13.4c-0.137,-6.261 1.747,-8.464 1.775,-9.081c0.056,-1.224 -0.993,-2.249 -1.328,-3.427c-0.617,-2.172 -0.713,-4.492 -1.522,-6.599c-0.208,-0.541 -1.198,-0.482 -1.406,-1.023Z" style="fill-opacity:0.57;"/><path d="M303.606,52.342c1.3,-0.371 2.167,-1.732 3.467,-2.103c0.77,-0.22 11.836,-0.178 13.435,0.05c1.085,0.155 9.661,1.378 9.958,9.414c0.111,3.001 -0.66,5.991 -0.549,8.991c-0.949,6.691 0.66,10.272 -9.464,10.454c-1.297,0.023 -12.954,0.233 -15.88,-3.27c-1.622,-1.942 -0.858,-2.196 -0.968,-23.537Z" style="fill-opacity:0.78;"/><path d="M281.508,251.25c0.175,0.774 2.19,2.973 2.02,8.939c-0.329,11.56 -1.329,12.471 -2.119,13.19c-3.143,2.863 -16.197,1.954 -17.983,0.144c-2.617,-2.653 -1.272,-3.198 -1.886,-17.57c-0.066,-1.549 -1.116,-3.241 -0.429,-4.63c0.154,-0.31 5.847,0.966 11.402,0.351c4.564,-0.505 4.486,-0.212 8.996,-0.425Z" style="fill-opacity:0.56;"/></g></g></svg>