<?xml version="1.0" encoding="UTF-8" standalone="no"?><!DOCTYPE svg PUBLIC "-//W3C//DTD SVG 1.1//EN" "http://www.w3.org/Graphics/SVG/1.1/DTD/svg11.dtd"><svg width="100%" height="100%" viewBox="0 0 480 480" version="1.1" xmlns="http://www.w3.org/2000/svg" xmlns:xlink="http://www.w3.org/1999/xlink" xml:space="preserve" xmlns:serif="http://www.serif.com/" style="fill-rule:evenodd;clip-rule:evenodd;stroke-linejoin:round;stroke-miterlimit:2;"><g><g><path d="M39.475,102.753c1.219,-1.155 0.932,-6.344 11.379,-7.021c3.347,-0.217 69.025,0.038 82.36,0.238c12.364,0.185 12.17,5.32 20.864,2.679c10.12,-3.075 10.487,-4.765 24.11,-0.015c2.516,0.877 4.492,1.566 33.282,1.149c9.876,-0.143 11.249,-3.073 16.613,-3.971c1.675,-0.281 76.91,-0.07 82.221,-0.147c10.542,-0.153 9.962,-4.007 20.533,-3.815c33.035,0.602 32.956,-0.668 65.924,-0.018c10.213,0.201 9.605,-4.424 24.665,-4.377c15.622,0.048 15.464,1.663 16.815,1.656c3.464,-0.018 10.852,-4.229 9.679,12.633c-0.433,6.227 -0.125,6.145 0.116,12.389c0.456,11.819 -0.278,11.918 1.474,17.048c1.838,5.38 2.68,5.275 2.696,16.017c0.074,49.186 0.46,49.322 -1.153,53.944c-6.749,19.334 0.368,31.387 -4.122,45.291c-3.079,9.532 -2.662,9.626 -2.668,20.295c-0.039,66.622 0.521,67.184 -2.125,70.084c-1.912,2.096 -11.532,2.034 -12.549,2.027c-1.548,-0.01 -3.079,-0.452 -4.627,-0.413c-0.599,0.015 -1.132,0.748 -1.704,0.571c-4.771,-1.48 -3.498,-12.93 -3.643,-18.323c-0.188,-7.003 -5.467,-6.37 -10.462,-6.441c-10.768,-0.154 -14.148,0.369 -14.31,-10.389c-0.26,-17.272 -1.001,-18.278 4.584,-22.554c2.769,-2.12 2.866,-5.907 5.271,-12.116c0.108,-0.28 0.252,-0.162 12.057,-0.179c1.876,-0.565 3.753,-1.13 5.629,-1.694c0.254,-1.749 1.251,-2 1.283,-8.838c0.119,-25.737 -1.067,-25.978 2.68,-36.734c4.608,-13.226 -3.256,-23.833 4.137,-45.299c1.974,-5.732 0.954,-12.078 1.131,-25.01c0.145,-10.612 -3.547,-10.024 -4.044,-20.602c-0.049,-1.037 -0.509,-10.844 -0.335,-12.976c0.029,-0.353 1.421,-2.395 -1.322,-4.046c-2.822,-1.698 -3.062,-1.363 -41.512,-1.363c-35.794,0 -35.937,-0.478 -44.996,2.677c-7.979,2.779 -42.111,0.988 -74.459,1.451c-9.762,0.14 -9.248,2.455 -16.222,3.626c-3.732,0.626 -178.451,-0.273 -189.992,0.55c-5.325,0.38 -6.419,0.794 -6.249,6.153c0.784,24.676 0.186,24.627 0.547,49.27c0.155,10.618 3.918,9.992 4.099,20.582c0.902,52.863 -0.758,52.809 -0.572,57.398c0.241,5.975 1.541,7.212 7.186,5.451c0.99,-0.309 2.855,-5.463 7.315,-6.78c6.914,-2.041 9.708,0.138 10.716,-6.998c0.37,-2.623 0.027,-5.299 0.082,-7.948c0.091,-4.388 -0.464,-4.481 1.351,-8.533c3.773,-8.424 26.023,-3.497 29.806,-7.602c2.588,-2.808 1.596,-19.568 2.023,-21.357c0.977,-4.095 2.287,-3.15 10.069,-7.581c2.626,-1.495 1.402,-2.661 3.877,-4.42c4.875,-3.465 18.742,-0.023 25.059,-3.676c3.81,-2.203 2.06,-6.168 12.052,-6.358c16.713,-0.319 22.363,-2.147 22.547,10.091c0.247,16.374 0.607,17.019 -2.449,20.069c-5.791,5.779 -20.016,-1.314 -26.423,6.392c-3.042,3.66 -3.329,3.274 -6.677,5.205c-0.992,0.572 -2.12,0.987 -2.928,1.798c-3.745,3.758 -0.662,9.401 -12.809,9.684c-11.403,0.266 -11.337,-0.052 -12.32,0.021c-18.01,1.326 -0.078,25.27 -20.371,28.63c-6.733,1.115 -9.141,-0.71 -10.32,6.052c-1.093,6.264 0.864,6.321 -0.21,12.591c-0.113,0.66 -0.831,4.853 -5.79,6.049c-1.37,0.33 -2.843,-0.039 -4.219,0.267c-1.682,0.374 -3.586,0.597 -4.863,1.753c-3.751,3.396 3.526,14.041 -11.886,14.567c-0.72,0.025 -7.095,0.242 -8.806,1.861c-2.18,2.064 -1.092,2.62 -1.439,33.351c-0.094,8.299 -7.462,20.945 -3.066,29.418c1.509,2.909 2.289,1.8 5.504,1.545c1.183,-0.094 2.372,0.122 3.558,0.092c35.352,-0.883 35.775,1.721 49.16,-2.961c3.443,-1.204 5.328,-1.864 45.567,-1.437c9.338,0.099 8.983,2.915 16.126,3.945c15.103,2.178 14.863,3.714 16.153,3.43c5.696,-1.255 4.42,-3.258 4.89,-3.258c0.664,0.001 8.261,0.007 8.296,0.028c1.903,1.174 3.543,2.743 5.446,3.917c0.276,1.278 1.252,0.612 1.54,1.946c0.076,0.351 -0.079,0.311 -0.151,4.488c0,0 0.139,8.008 0.151,8.705l-1.54,1.946c-1.903,1.174 -3.543,2.743 -5.446,3.917c-0.036,0.022 -7.632,0.027 -8.295,0.028c-0.455,0 0.818,-2.076 -4.767,-3.094c-1.158,-0.211 -2.118,1.064 -3.253,1.375c-8.215,2.248 -11.458,-2.259 -25.015,-2.387c-49.261,-0.464 -49.239,0.088 -53.52,0.007c-6.271,-0.118 -6.084,0.693 -12.081,2.613c-3.468,1.111 -5.755,1.843 -45.5,1.465c-9.648,-0.092 -7.849,-3.714 -9.741,-5.475c-0.657,-1.984 -1.313,-3.968 -1.97,-5.952c-6.521,-2.321 -9.041,-0.071 -10.525,-6.788c-1.168,-5.288 2.054,-15.314 2.465,-16.592c2.173,-6.761 0.742,-6.947 1.325,-33.283c0.253,-11.437 4.285,-10.778 4.1,-20.569c-0.266,-14.137 -3.751,-16.992 -4.26,-20.762c-0.137,-1.012 -0.137,-60.458 -0.137,-65.715c-0,-57.979 0.267,-58.026 -1.11,-62.076c-0.415,-1.22 -1.105,-2.338 -1.495,-3.566c-2.869,-9.02 -1.569,-34.165 -1.415,-37.134c0.514,-9.936 4.209,-8.519 5.413,-9.762c1.979,-0.673 3.958,-1.346 5.937,-2.02Z" style="fill-opacity:0.8;"/><path d="M226.106,246.174c1.943,-11.379 1.986,-11.299 2.099,-12.29c0.156,-1.377 -0.955,-2.951 -0.259,-4.149c1.264,-2.175 21.007,-3.736 24.744,-0.145c3.576,3.437 0.097,25.253 3.786,29.187c0.963,1.027 2.562,1.283 3.957,1.474c8.96,1.229 12.54,-2.731 14.503,6.045c1.3,5.809 -3.776,14.439 10.573,14.697c2.766,0.05 5.534,-0.002 8.301,0.027c12.363,0.132 14.816,4.89 18.905,-2.778c2.422,-4.544 2.805,-4.992 9.841,-5.191c0.919,-0.026 9.813,-0.277 10.936,-3.538c1.546,-4.485 -4.473,-12.593 13.705,-12.924c2.783,-0.051 5.567,0 8.35,-0.02c12.526,-0.094 9.277,-7.166 12.338,-10.485c1.95,-2.114 21.17,-3.537 24.828,-0.022c2.521,2.423 4.028,27.514 -3.861,30.405c-0.774,0.284 -14.359,0.016 -17.015,2.394c-0.98,0.878 -1.011,2.429 -1.553,3.628c-1.863,4.123 -1.628,6.601 -10.54,6.741c-2.754,0.043 -5.508,-0.01 -8.262,0.005c-13.929,0.076 -8.103,7.456 -11.856,14.866c-0.459,0.907 -1.242,1.617 -1.962,2.335c-6.855,6.839 -4.254,10.041 -10.504,11.427c-1.016,0.225 -11.752,0.441 -12.775,0.462c-12.628,0.254 -12.09,-3.77 -24.651,-4.051c-2.689,-0.06 -5.419,0.348 -8.069,-0.114c-13.289,-2.319 0.962,-17.28 -12.191,-20.338c-1.969,-0.458 -17.663,0.934 -21.046,-2.316c-1.72,-1.653 -1.832,-7.579 -1.845,-8.255c-0.02,-1.041 -0.203,-10.732 -1.421,-12.935c-1.335,-2.414 -7.102,-1.816 -9.104,-1.895c-11.269,-0.443 -10.179,-4.63 -9.954,-22.248Z" style="fill-opacity:0.83;"/><path d="M208.766,371.438c1.184,-0.617 0.86,-2.196 6.258,-3.263c9.967,-1.97 54.203,0.874 62.621,-1.844c7.526,-2.43 7.418,-3.62 24.418,-2.661c10.55,0.595 10.019,3.931 20.54,3.803c44.67,-0.542 46.13,-0.162 50.002,0.845c3.879,1.009 4.667,0.834 5.183,4.878c0.292,2.285 -0.186,16.017 -1.437,17.327c-1.345,1.408 -21.182,3.07 -29.287,0.468c-9.696,-3.113 -9.84,-2.63 -36.785,-2.63c-18.606,-0 -18.517,0.078 -37.076,-0.276c-8.456,-0.161 -11.415,3.966 -20.593,4.352c-0.255,0.011 -11.753,0.06 -24.609,0.025c-8.509,-0.024 -8.474,-0.093 -16.856,-1.749l-0.837,-4.135c-0.012,-0.696 -0.151,-8.705 -0.151,-8.705c0.073,-4.178 0.227,-4.137 0.151,-4.488c-0.288,-1.335 -1.264,-0.668 -1.54,-1.946Z" style="fill-opacity:0.84;"/><path d="M306.334,183.43c1.102,8.083 0.908,8.082 1.19,8.727c1.117,2.563 2.202,1.839 3.081,4.579c0.328,1.024 -1.657,8.509 -0.688,12.625c0.703,2.987 1.768,1.921 4.794,2.418c1.316,0.216 2.588,0.905 3.918,0.808c1.144,-0.083 2.03,-1.392 3.174,-1.325c1.292,0.076 2.19,1.642 3.482,1.719c0.623,2.937 1.246,5.875 1.869,8.812c-0.395,1.254 -1.73,2.069 -2.125,3.323c-0.429,1.363 0.1,2.897 -0.268,4.278c-1.451,5.446 -4.414,6.356 -14.448,6.586c-10.573,0.243 -9.676,-3.639 -9.352,-14.195c-0.642,-1.052 -0.249,-2.536 -0.891,-3.588c-0.393,-0.645 -1.452,-0.565 -1.974,-1.11c-0.606,-0.633 -0.715,-1.628 -1.285,-2.295c-2.547,-2.984 -2.891,-2.513 -6.679,-3.369c-3.715,-0.839 -3.649,0.05 -10.112,1.769c6.841,-21.476 3.15,-31.982 21.935,-30.921c1.508,0.085 2.872,1.075 4.38,1.16Z" style="fill-opacity:0.87;"/><path d="M418.882,363.227c0.63,-0.813 1.727,-1.178 2.357,-1.991c0.725,-0.936 1.065,-2.114 1.629,-3.155c0.213,-0.392 2.576,-4.757 2.718,-4.872c0.758,-0.614 6.887,-2.003 8.827,-1.708c5.814,0.883 6,7.946 5.399,26.611c-0.322,9.994 -4.345,7.629 -10.706,11.067c-1.442,0.779 -7.983,4.314 -20.275,2.938c-7.152,-0.801 -6.48,-3.114 -6.426,-6.347c0.23,-13.634 -0.673,-13.682 -0.25,-14.787c0.772,-2.017 6.657,-3.436 7.289,-3.589c5.106,-1.231 5.03,-1.379 9.438,-4.167Z" style="fill-opacity:0.87;"/><path d="M215.418,240.049c-4.096,-0.118 -4.038,-0.093 -8.1,-0.233c-2.151,-0.074 -2.075,0.044 -4.17,-0.002c-10.777,-0.24 -10.487,-3.538 -10.103,-14.27c0.228,-6.38 -2.147,-7.295 2.387,-11.856c3.005,-3.023 3.438,-2.304 7.717,-2.415c11.705,-0.302 20.516,-2.536 17.955,14.184c-0.426,2.779 -1.156,5.508 -1.508,8.297c-0.164,1.305 0.693,2.849 -0.034,3.945c-0.878,1.323 -3.266,1.027 -4.144,2.35Z" style="fill-opacity:0.86;"/><path d="M325.284,212.98c-0.017,-0.68 -0.214,-8.503 -0.214,-8.503c1.451,-6.354 3.406,-5.034 9.924,-5.363c0.959,-0.048 9.519,-0.481 10.36,6.049c0.127,0.983 1.173,9.107 -2.061,12.214c-2.296,2.206 -7.686,2.151 -8.377,2.144c-1.34,-0.014 -2.731,-0.541 -4.017,-0.164c-1.43,0.418 -2.317,2.018 -3.746,2.436c-0.623,-2.937 -1.246,-5.875 -1.869,-8.812Z" style="fill-opacity:0.91;"/><path d="M312.774,180.084c0.343,-1.804 -0.792,-1.685 -0.44,-3.534c0.075,-0.395 0.602,-3.166 1.989,-4.616c2.732,-2.854 14.506,-2.192 16.615,0.001c2.902,3.018 2.258,14.279 -0.165,16.454c-2.05,1.839 -14.798,2.631 -16.509,0.43c-0,-0 -1.37,-8.036 -1.489,-8.735Z" style="fill-opacity:0.93;"/><path d="M280.019,213.191c6.464,-1.719 6.397,-2.608 10.112,-1.769c3.788,0.855 4.132,0.385 6.679,3.369c0.569,0.667 0.678,1.662 1.285,2.295c0.522,0.545 1.581,0.465 1.974,1.11c0.642,1.052 0.249,2.536 0.891,3.588c-1.565,0.317 0.055,-2.377 -1.537,-2.055c-0.46,0.093 -2.312,0.468 -4.82,3.341c-0.667,0.765 0.064,2.28 -0.684,2.966c-2.942,2.7 -8.059,1.409 -8.744,1.236c-8.648,-2.182 -5.885,-5.246 -5.156,-14.082Z" style="fill-opacity:0.58;"/><path d="M210.306,386.577l0.837,4.135l-2.377,-2.189l1.54,-1.946Z" style="fill-opacity:0.29;"/></g></g></svg>