<?xml version="1.0" encoding="UTF-8" standalone="no"?><!DOCTYPE svg PUBLIC "-//W3C//DTD SVG 1.1//EN" "http://www.w3.org/Graphics/SVG/1.1/DTD/svg11.dtd"><svg width="100%" height="100%" viewBox="0 0 480 480" version="1.1" xmlns="http://www.w3.org/2000/svg" xmlns:xlink="http://www.w3.org/1999/xlink" xml:space="preserve" xmlns:serif="http://www.serif.com/" style="fill-rule:evenodd;clip-rule:evenodd;stroke-linejoin:round;stroke-miterlimit:2;"><g><g><path d="M149.818,242.379c3.637,-0.328 7.319,0.328 10.956,0c1.884,-0.17 3.603,-1.229 5.478,-1.483c1.809,-0.245 3.686,0.353 5.478,0c3.609,-0.711 3.357,-2.579 11.528,-1.732c41.835,4.339 57.137,-6.796 56.884,14.594c-0.533,45.103 2.126,45.068 1.544,48.941c-0.313,2.084 -1.837,3.842 -2.244,5.909c-0.353,1.792 0.245,3.668 0,5.478c-0.385,2.846 -1.22,2.558 -1.483,5.478c-0.497,5.51 0.497,5.447 0,10.956c-17.067,0.68 -16.925,2.738 -16.928,2.739c-3.617,0.502 -7.312,-0.24 -10.956,0c-5.021,0.33 -4.899,1.078 -10.956,1.075c-43.341,-0.016 -43.345,0.016 -43.66,-0.048c-2.259,-0.458 -4.411,-1.737 -6.041,-3.367c-4.45,-4.45 -3.399,-5.078 -3.418,-11.373c-0.01,-3.504 -0.123,-41.955 -0.002,-43.795c0.122,-1.861 0.959,-3.628 1.081,-5.489c0.24,-3.644 -0.516,-7.341 0,-10.956c0.281,-1.967 1.931,-3.535 2.348,-5.478c0,0 0.36,-10.534 0.391,-11.45Z" style="fill-opacity:0.83;"/><path d="M396.573,391.175c1.574,-0.108 2.757,-1.802 4.331,-1.91c0.929,-0.064 0.855,0.1 11.555,1.355c0.687,1.815 0.205,3.939 0.892,5.754c0.397,1.05 1.681,1.543 2.237,2.518c0.933,1.638 2.435,3.355 2.173,5.222c-0.299,2.133 -2.869,3.324 -3.652,5.331c-0,0 -1.158,8.236 -1.259,8.952c-19.475,3.1 -19.46,2.658 -71.312,2.699c-14.455,0.011 -14.262,1.03 -21.5,3.552c-5.731,1.997 -5.859,1.501 -77.096,1.559c-18.041,0.015 -17.349,3.899 -27.088,5.216c-3.585,0.485 -30.189,0.893 -32.935,0.47c-0.905,-0.14 -0.802,-0.271 -10.847,-3.658c-2.278,-0.783 -4.151,-2.515 -6.429,-3.297c-1.616,-0.555 -3.409,-0.321 -5.085,-0.659c-8.379,-1.689 -10.984,-4.18 -10.171,-0.579c0.918,4.066 4.267,7.313 5.185,11.378c-13.862,2.729 -13.923,2.63 -55.163,2.066c-11.439,-0.157 -13.229,-2.028 -12.859,-13.488c0.456,-14.125 4.673,-13.923 12.902,-13.67c31.973,0.983 50.857,-0.808 55.259,-1.225c2.043,-0.018 4.087,-0.035 6.13,-0.053c9.302,-3.992 9.184,-4.152 10.044,-4.311c5.119,-0.946 77.835,1.601 87.894,-1.646c12.93,-4.174 13.026,-3.946 32.462,-3.946c24.619,-0.001 24.814,0.691 37.95,-3.553c9.684,-3.128 26.341,-0.709 55.254,-1.966c8.561,-0.372 9.016,-1.711 11.127,-2.111Z" style="fill-opacity:0.76;"/><path d="M40.535,127.704c0.485,-1.954 1.717,-3.67 2.202,-5.623c0.734,-2.954 -0.356,-3.007 0.449,-38.049c0.529,-22.988 -1.139,-23.759 2.457,-27.501c1.262,-1.313 3.202,-1.915 5,-2.201c3.763,-0.599 7.642,0.055 11.423,-0.413c5.136,-0.636 14.323,-7.921 27.799,-3.622c1.972,0.629 7.786,4.556 16.526,1.886c6.994,-2.136 6.826,-3.963 37.946,-3.963c8.226,-0 8.153,0.217 16.419,0.365c13.124,0.236 12.311,-5.128 27.367,-5.452c32.531,-0.7 45.635,-1.26 49.354,2.523c2.658,2.704 2.755,18.995 -0,21.942c-5.371,5.745 -46.432,-0.505 -60.672,4.453c-17.395,6.056 -17.897,3 -70.799,3.58c-12.127,0.133 -13.038,3.702 -21.665,5.082c-8.261,1.321 -13.598,-0.948 -13.763,14.191c-0.12,10.98 -0.313,10.894 -0.003,21.952c0.266,9.5 -1.605,10.804 -2.365,11.334c-1.117,0.779 -1.302,-0.738 -17.018,-0.297c-5.353,0.15 -5.259,-0.092 -10.659,-0.187Z" style="fill-opacity:0.87;"/><path d="M204.946,177.513c3.524,1.014 1.671,3.632 5.128,4.627c0.842,0.242 2.896,0.833 10.956,0c1.902,-0.197 3.589,-1.406 5.478,-1.698c1.804,-0.28 3.67,0.254 5.478,0c2.014,-0.283 3.859,-1.465 5.889,-1.597c3.568,-0.233 7.146,0.284 10.714,0.515c21.141,1.367 28.776,0.423 38.15,0.118c0.94,-0.031 8.492,-0.276 11.445,2.699c0,0 4.812,10.483 5.231,11.394c-0.025,13.571 -1.045,13.668 -0.03,16.436c1.497,4.08 4.533,1.482 6.009,5.504c0.218,1.74 2.089,16.679 1.284,21.885c-0.292,1.889 -1.499,3.577 -1.695,5.478c-0.375,3.633 -0.442,7.331 0,10.956c0.315,2.581 1.933,4.889 2.248,7.47c-2.983,3.012 -2.667,3.187 -5.879,5.937c-6.845,5.86 -1.915,11.557 -12.201,16.28c-2.202,1.011 -4.844,1.303 -6.664,2.903c-1.322,1.162 -1.4,3.231 -2.135,4.83c-2.745,5.967 -2.668,5.998 -3.043,6.426c-0.654,0.746 -0.813,0.374 -11.269,5.184l-4.772,-5.206c0.43,-3.627 -0.43,-7.329 0,-10.956c0.228,-1.925 1.61,-3.57 1.949,-5.478c0.32,-1.798 -0.267,-3.672 0,-5.478c0.845,-5.707 1.618,-5.527 1.359,-11.212c-2.182,-47.793 4.564,-53.827 -9.471,-57.468c-1.892,-0.491 -20.516,1.054 -43.433,-0.172c-3.566,-0.191 -7.135,-0.643 -10.702,-0.481c-1.991,0.091 -3.869,1.019 -5.851,1.235c-2.839,0.31 -2.744,-0.486 -5.478,0c-3.652,0.649 -7.304,1.299 -10.956,1.948l-5.201,-4.769c2.164,-3.521 3.028,-7.738 5.192,-11.259c0.477,-0.776 1.573,0.443 8.41,-7.67c5.315,-6.307 6.264,-4.965 13.861,-8.381Z" style="fill-opacity:0.81;"/><path d="M144.521,237.583l5.296,4.796c-0.031,0.916 -0.391,11.45 -0.391,11.45c-0.416,1.942 -2.067,3.511 -2.348,5.478c-0.516,3.615 0.24,7.312 0,10.956c-0.122,1.861 -0.959,3.628 -1.081,5.489c-0.12,1.84 -0.008,40.291 0.002,43.795c0.018,6.295 -1.032,6.923 3.418,11.373c1.63,1.63 3.782,2.908 6.041,3.367c0.315,0.064 0.319,0.031 43.66,0.048c6.057,0.002 5.935,-0.745 10.956,-1.075c3.644,-0.24 7.339,0.502 10.956,0c0.004,-0 -0.139,-2.059 16.928,-2.739l4.797,5.298c-2.432,3.322 -2.813,7.86 -5.245,11.182c-0.517,0.706 -10.444,3.923 -13.78,7.676c-3.789,4.263 -3.693,5.598 -13.594,5.764c-27.052,0.453 -38.283,-0.806 -82.201,0.393c-17.513,0.478 -13.532,-7.271 -13.534,-24.835c-0.004,-32.902 0.487,-32.794 -0.377,-65.706c-0.408,-15.546 11.685,-13.567 14.001,-16.342c4.022,-4.818 1.587,-6.115 5.307,-11.129c0.589,-0.794 0.799,-0.374 11.189,-5.238Z" style="fill-opacity:0.82;"/><path d="M433.46,66.097c-16.932,3.022 -16.776,3.465 -25.943,4.293c-1.073,0.097 -80.867,0.117 -87.898,0.119c-60.566,0.016 -61.687,0.307 -64.715,-3.903c-1.573,-2.187 -1.573,-17.776 -0,-19.963c2.01,-2.794 3.431,-4.771 42.849,-3.902c36.798,0.811 132.429,-0.461 137.585,0.768c9.928,2.367 7.33,12.36 7.022,13.541c-1.686,6.484 -3.116,5.571 -8.9,9.046Z" style="fill-opacity:0.74;"/><path d="M433.432,222.839c5.749,3.162 7.345,2.111 8.854,8.56c0.364,1.556 0.352,10.545 0.35,11.463c-0.044,31.425 0.811,38.004 -5.151,48.009c-4.061,6.816 -3.348,19.588 -4.532,39.479c-0.72,12.098 -9.649,24.313 -10.208,28.746c-0.11,0.873 1.638,1.279 1.528,2.151c-2.976,1.207 -3.11,0.41 -6.147,1.642c-0.252,0.102 -2.059,0.835 -2.772,1.976c-1.031,1.65 -1.107,13.829 -1.115,15.035c-0.046,7.41 -1.192,7.177 -1.781,10.72c-10.701,-1.255 -10.627,-1.419 -11.555,-1.355c-1.574,0.108 -2.757,1.802 -4.331,1.91c2.648,-16.546 2.525,-16.497 2.773,-33.304c0.197,-13.329 7.29,-21.965 9.404,-26.846c4.254,-9.819 0.311,-54.185 3.945,-60.77c0.71,-1.287 8.068,-4.637 5.368,-16.411c-3.131,-13.655 -2.907,-13.574 -4.438,-27.371c0.544,-0.309 6.804,-3.856 6.804,-3.856c1.044,-0.213 1.981,1.081 3.041,0.98c1.805,-0.171 3.339,-1.621 5.147,-1.758c1.635,-0.124 3.181,1.125 4.815,1.001Z" style="fill-opacity:0.56;"/><path d="M177.484,204.823l5.201,4.769l0,12.777c2.678,2.75 62.88,1.171 66.242,2.01c8.098,2.022 6.09,4.631 6.316,12.982c1.23,45.488 -2.231,45.475 -1.185,49.277c0.733,2.664 3.278,5.164 3.657,5.536c3.345,3.286 4.154,2.137 7.554,5.478l4.772,5.206c-2.145,3.532 -2.948,7.771 -5.093,11.304c-2.065,3.4 -3.72,1.749 -5.838,5.181c-0.927,1.502 -1.364,3.256 -2.103,4.859c-2.725,5.915 -2.691,5.937 -3.067,6.359c-0.657,0.739 -0.808,0.38 -11.184,5.256l-4.797,-5.298c0.497,-5.509 -0.497,-5.446 0,-10.956c0.264,-2.92 1.098,-2.632 1.483,-5.478c0.245,-1.809 -0.353,-3.686 0,-5.478c0.407,-2.067 1.931,-3.826 2.244,-5.909c0.582,-3.874 -2.077,-3.839 -1.544,-48.941c0.253,-21.389 -15.049,-10.255 -56.884,-14.594c-8.171,-0.847 -7.92,1.021 -11.528,1.732c-1.792,0.353 -3.668,-0.245 -5.478,0c-1.875,0.254 -3.594,1.313 -5.478,1.483c-3.637,0.328 -7.319,-0.328 -10.956,0l-5.296,-4.796c2.436,-3.322 2.818,-7.864 5.254,-11.186c3.847,-5.247 7.032,-0.303 11.17,-5.265c2.637,-3.161 2.819,-7.858 5.26,-11.173c0.588,-0.798 0.804,-0.366 11.278,-5.137Z" style="fill-opacity:0.82;"/><path d="M43.304,138.644c23.093,0.225 23.33,-1.361 24.981,-0.235c2.521,1.719 2.497,18.169 2.306,33.288c-0.2,15.855 6.141,15.135 4.712,27.578c-0.63,5.49 -2.418,4.958 -3.305,10.397c-1.342,8.225 4.088,7.832 4.058,33.187c-0.023,18.796 0.614,18.802 -2.563,33.118c-2.139,-0.315 -4.158,-1.239 -6.297,-1.553c-2.364,-0.348 -4.197,-0.093 -4.558,-0.043c-3.262,0.453 -3.017,1.095 -6.228,1.541c-2.675,-10.988 -2.015,-11.098 -6.083,-21.679c-1.944,-5.056 -2.173,-5.036 -2.143,-27.687c0.076,-1.895 0.776,-3.731 0.852,-5.626c0.147,-3.664 -0.278,-5.008 -0.409,-5.422c-0.974,-3.079 -2.072,-2.421 -3.048,-5.508c-0.083,-9.309 0.067,-9.236 -0.305,-16.398c-0.433,-8.332 -1.959,-7.906 -2.692,-10.865c0.554,-22.124 1.479,-22.02 0.724,-44.093Z" style="fill-opacity:0.85;"/><path d="M254.544,134.087c2.038,0.525 2.794,3.539 4.832,4.064c8.17,2.103 8.116,-0.071 16.434,-1.58c2.048,-0.371 9.825,-0.155 10.679,-0.131c46.614,1.297 51.796,-2.703 55.965,1.528c1.535,1.558 0.266,4.773 1.831,6.303c2.763,2.701 7.454,2.775 10.217,5.476c-0.001,2.638 -0.006,32.407 0.03,32.981c0.351,5.567 2.459,5.038 2.904,10.535c0.009,0.112 -1.74,4.87 -0.173,10.881c0.689,2.645 1.972,5.112 2.661,7.758c-5.617,5.454 -5.003,5.954 -10.83,11.066c-3.641,3.194 -2.761,3.707 -4.563,8.126c-3.647,8.943 -5.514,7.403 -14.434,11.346c-1.029,-3.513 -3.674,-1.595 -4.684,-5.044c-0.246,-0.841 -0.793,-2.708 0,-10.956c0.182,-1.892 1.308,-3.597 1.58,-5.478c0.261,-1.807 -0.319,-3.68 0,-5.478c0.365,-2.057 1.863,-3.848 2.025,-5.93c0.13,-1.672 -0.988,-3.225 -1.182,-4.891c-0.213,-1.827 -0.022,-3.679 -0.029,-5.519c-0.177,-45.404 1.978,-46.405 -1.926,-50.232c-1.924,-1.887 -2.469,-2.421 -33.634,-1.902c-2.63,0.044 -27.153,0.453 -32.867,0.978c-1.886,0.174 -3.601,1.253 -5.478,1.512c-1.809,0.25 -3.893,0.906 -5.478,0c-3.104,-1.775 -4.555,-5.736 -7.659,-7.511c1.569,-1.181 0.777,-1.802 2.346,-2.983c0.796,-0.599 0.845,-0.364 11.437,-4.919Z" style="fill-opacity:0.7;"/><path d="M434.796,78.441c0.525,2.098 2.127,3.823 2.652,5.921c0.247,0.988 0.174,80.354 0.048,81.626c-1.33,13.443 -8.813,21.152 -4.064,56.85c-1.635,0.124 -3.181,-1.125 -4.815,-1.001c-1.808,0.138 -3.342,1.587 -5.147,1.758c-1.06,0.101 -1.998,-1.193 -3.041,-0.98c-0,0 -6.259,3.548 -6.804,3.856c-8.122,-27.494 -2.187,-27.981 -1.003,-60.284c0.265,-7.23 0.249,-19.476 1.304,-27.191c1.561,-11.425 3.563,-11.622 -0.004,-22.523c-0.156,-0.477 -5.255,-10.357 -3.367,-21.827c0.231,-1.404 2.063,-12.53 8.217,-15.781c1.543,-0.815 3.458,0.698 5.2,0.602c2.795,-0.154 2.563,-0.922 5.323,-1.184c2.766,-0.262 2.68,0.425 5.501,0.157Z" style="fill-opacity:0.71;"/><path d="M240.761,141.989c3.104,1.775 4.555,5.736 7.659,7.511c1.585,0.906 3.669,0.25 5.478,0c1.876,-0.259 3.592,-1.338 5.478,-1.512c5.714,-0.526 30.237,-0.934 32.867,-0.978c31.165,-0.519 31.71,0.015 33.634,1.902c3.903,3.828 1.748,4.828 1.926,50.232c0.007,1.84 -0.184,3.692 0.029,5.519c0.194,1.666 1.312,3.219 1.182,4.891c-0.162,2.083 -1.66,3.874 -2.025,5.93c-0.319,1.798 0.261,3.671 0,5.478c-0.271,1.881 -1.398,3.586 -1.58,5.478c-0.793,8.248 -0.246,10.115 0,10.956c1.01,3.449 3.656,1.531 4.684,5.044c-3.51,8.062 -1.477,10.126 -9.532,13.671c-2.237,0.985 -4.667,1.551 -6.803,2.739c-1.025,0.57 -1.502,1.879 -2.527,2.45c-0.315,-2.581 -1.933,-4.889 -2.248,-7.47c-0.442,-3.625 -0.375,-7.323 0,-10.956c0.196,-1.901 1.403,-3.589 1.695,-5.478c0.805,-5.206 -1.066,-20.145 -1.284,-21.885c-0.325,-13.724 -0.497,-13.637 0.03,-27.427c0.2,-1.355 2.15,-14.544 1.63,-17.049c-1.775,-8.543 -12.113,-8.072 -13.358,-8.015c-2.635,0.12 -26.934,1.229 -32.971,0.449c-1.686,-0.218 -3.236,-1.444 -4.93,-1.305c-2.09,0.172 -3.818,1.923 -5.898,2.193c-3.621,0.471 -7.321,-0.351 -10.956,0c-1.892,0.183 -3.586,1.405 -5.478,1.588c-8.308,0.803 -10.117,0.254 -10.956,0c-3.533,-1.071 -1.52,-3.782 -5.126,-4.874c0.726,-1.612 1.348,-3.271 2.074,-4.883c2.513,-5.579 1.996,-6.315 7.656,-8.733c2.226,-0.951 4.677,-1.402 6.783,-2.595c1.176,-0.666 1.689,-2.204 2.865,-2.87Z" style="fill-opacity:0.75;"/><path d="M265.268,297.653c-3.4,-3.341 -4.209,-2.192 -7.554,-5.478c-0.379,-0.372 -2.924,-2.872 -3.657,-5.536c-1.046,-3.802 2.415,-3.789 1.185,-49.277c-0.226,-8.352 1.782,-10.96 -6.316,-12.982c-3.362,-0.839 -63.564,0.74 -66.242,-2.01l0,-12.777c3.652,-0.649 7.304,-1.299 10.956,-1.948c2.734,-0.486 2.639,0.31 5.478,0c1.981,-0.216 3.86,-1.144 5.851,-1.235c3.567,-0.163 7.136,0.29 10.702,0.481c22.918,1.226 41.541,-0.319 43.433,0.172c14.035,3.641 7.289,9.674 9.471,57.468c0.26,5.685 -0.514,5.505 -1.359,11.212c-0.267,1.806 0.32,3.68 0,5.478c-0.339,1.908 -1.721,3.553 -1.949,5.478c-0.43,3.627 0.43,7.329 -0,10.956Z" style="fill-opacity:0.84;"/><path d="M50.831,291.894c1.726,-0.069 3.228,-1.453 4.955,-1.522c0.515,-0.021 0.376,0.685 6.348,1.072c6.12,0.396 6.044,-0.27 12.117,0.123c0.599,4.103 1.687,3.868 1.721,11.799c0.097,22.594 0.502,31.665 -1.799,38.513c-4.321,12.862 -2.989,13.064 -2.996,26.609c-0.74,0.022 -0.968,1.398 -1.708,1.421c-3.749,0.112 -3.539,-1.424 -7.319,-1.15c-2.403,0.174 -4.483,2.137 -6.891,2.178c-1.54,0.026 -2.631,-2.016 -4.172,-1.99c-0.821,-5.372 -1.363,-5.177 -1.614,-10.563c-0.746,-15.999 -1.98,-30.467 -0.514,-55.741c0.32,-5.512 0.93,-5.338 1.873,-10.747Z" style="fill-opacity:0.57;"/><path d="M221.383,161.07c3.606,1.093 1.593,3.803 5.126,4.874c0.839,0.254 2.648,0.803 10.956,0c1.892,-0.183 3.586,-1.405 5.478,-1.588c3.635,-0.351 7.334,0.471 10.956,0c2.08,-0.271 3.807,-2.022 5.898,-2.193c1.694,-0.139 3.244,1.087 4.93,1.305c6.037,0.78 30.335,-0.329 32.971,-0.449c1.245,-0.057 11.583,-0.528 13.358,8.015c0.52,2.505 -1.429,15.694 -1.63,17.049l-6.01,5.487c-0.418,-0.912 -5.231,-11.394 -5.231,-11.394c-2.953,-2.975 -10.505,-2.729 -11.445,-2.699c-9.374,0.305 -17.009,1.249 -38.15,-0.118c-3.568,-0.231 -7.146,-0.748 -10.714,-0.515c-2.03,0.132 -3.875,1.314 -5.889,1.597c-1.808,0.254 -3.673,-0.28 -5.478,0c-1.889,0.293 -3.576,1.502 -5.478,1.698c-8.06,0.833 -10.114,0.242 -10.956,0c-3.458,-0.995 -1.605,-3.613 -5.128,-4.627c0.409,-0.907 5.116,-11.343 5.116,-11.343c0.654,-0.748 0.816,-0.367 11.321,-5.1Z" style="fill-opacity:0.78;"/><path d="M274.638,115.22c2.714,1.418 3.936,4.919 6.65,6.337c2.431,1.27 5.37,-1.604 16.434,-1.604c3.652,0 7.305,0.074 10.956,0c13.709,-0.277 13.597,-0.332 27.39,-0.332c12.422,-0 16.782,-3.652 19.413,8.478c0.367,1.694 0.383,1.765 -0.979,21.649c-2.763,-2.701 -7.454,-2.775 -10.217,-5.476c-1.564,-1.529 -0.295,-4.744 -1.831,-6.303c-4.169,-4.231 -9.351,-0.231 -55.965,-1.528c-0.854,-0.024 -8.631,-0.24 -10.679,0.131c-8.317,1.509 -8.264,3.683 -16.434,1.58c-2.038,-0.525 -2.794,-3.539 -4.832,-4.064c3.471,-8.323 1.015,-10.827 9.461,-13.949c2.3,-0.85 4.841,-1.015 7.066,-2.044c1.386,-0.641 2.181,-2.233 3.567,-2.874Z" style="fill-opacity:0.65;"/><path d="M424.275,361.247c10.981,0.125 17.919,-2.021 18.043,12.999c0.029,3.56 0.288,34.963 -0.383,44.503c-0.127,1.802 -1.037,3.492 -1.164,5.294c-2.844,0.239 -2.628,0.933 -5.531,1.177c-3.24,0.273 -3.135,-0.605 -6.371,-0.176c-1.017,0.135 -1.731,1.249 -2.748,1.384c-0.34,-0.49 -4.247,-6.128 -4.247,-6.128c-0.293,-0.168 -0.264,0.784 -4.227,-0.052c-2.608,-0.55 -2.258,-1.316 -4.797,-1.851c0.101,-0.716 1.259,-8.952 1.259,-8.952c0.784,-2.006 3.353,-3.198 3.652,-5.331c0.262,-1.867 -1.24,-3.584 -2.173,-5.222c-0.556,-0.976 -1.84,-1.468 -2.237,-2.518c-0.687,-1.815 -0.205,-3.939 -0.892,-5.754c0.589,-3.543 1.735,-3.311 1.781,-10.72c0.008,-1.206 0.084,-13.385 1.115,-15.035c0.713,-1.14 2.52,-1.873 2.772,-1.976c3.037,-1.232 3.171,-0.435 6.147,-1.642Z" style="fill-opacity:0.63;"/><path d="M51.086,368.945c1.54,-0.026 2.631,2.016 4.172,1.99c2.409,-0.041 4.488,-2.004 6.891,-2.178c3.781,-0.273 3.571,1.263 7.319,1.15c0.74,-0.022 0.968,-1.398 1.708,-1.421l0.963,5.878c-1.517,3.789 -3.573,2.239 -5.094,6.04c-0.137,0.343 -0.888,2.218 0.858,4.542c0.791,1.052 2.872,0.423 3.663,1.475c3.044,7.586 4.336,7.236 4.37,15.493c0.007,1.778 0.053,12.889 -1.93,22.141c-2.554,11.917 -20.461,6.56 -22.409,4.658c-4.27,-4.169 -4.308,-29.817 -0.661,-38.125c2.265,-5.161 4.897,-5.402 5.221,-5.954c0.787,-1.338 1.35,-3.111 0.846,-4.58c-0.838,-2.444 -3.351,-3.982 -4.566,-6.262c-0.789,-1.48 -0.563,-3.366 -1.352,-4.846Z" style="fill-opacity:0.72;"/><path d="M309.425,188.083c-0.527,13.79 -0.355,13.703 -0.03,27.427c-1.476,-4.023 -4.512,-1.425 -6.009,-5.504c-1.016,-2.768 0.005,-2.865 0.03,-16.436l6.01,-5.487Z" style="fill-opacity:0.79;"/><path d="M41.661,188.256c-0.608,16.304 -1.259,25.046 -1.421,27.221c-0.772,-2.628 -3.227,-1.947 -3.13,-10.66c0.111,-9.95 0.049,-9.952 0.278,-10.784c0.992,-3.611 3.279,-2.157 4.273,-5.776Z" style="fill:#787878;fill-opacity:0.31;"/><path d="M45.578,210c0.977,3.087 2.074,2.428 3.048,5.508c0.131,0.415 0.556,1.759 0.409,5.422c-0.076,1.895 -0.776,3.731 -0.852,5.626c-2.557,-10.307 -2.664,-10.219 -2.762,-11.132c-0.298,-2.785 0.448,-2.702 0.157,-5.425Z" style="fill:#090909;fill-opacity:0.31;"/><path d="M72.14,374.365c-0.191,4.019 -0.382,8.037 -0.574,12.056c-0.791,-1.052 -2.872,-0.423 -3.663,-1.475c-1.746,-2.324 -0.995,-4.199 -0.858,-4.542c1.522,-3.8 3.577,-2.25 5.094,-6.04Z" style="fill-opacity:0.29;"/></g></g></svg>