<?xml version="1.0" encoding="UTF-8" standalone="no"?><!DOCTYPE svg PUBLIC "-//W3C//DTD SVG 1.1//EN" "http://www.w3.org/Graphics/SVG/1.1/DTD/svg11.dtd"><svg width="100%" height="100%" viewBox="0 0 480 480" version="1.1" xmlns="http://www.w3.org/2000/svg" xmlns:xlink="http://www.w3.org/1999/xlink" xml:space="preserve" xmlns:serif="http://www.serif.com/" style="fill-rule:evenodd;clip-rule:evenodd;stroke-linecap:round;stroke-linejoin:round;stroke-miterlimit:1.5;"><rect x="0" y="0" width="480" height="480" style="fill:#fff;stroke:#171815;stroke-width:0.24px;"/><g id="logo.png"><path d="M173.507,349.907c-0.32,-0.536 -0.805,-0.962 -1.124,-1.498c-0.69,-1.159 11.586,-22.644 19.112,-37.665c0.964,-1.923 2.659,0.804 2.737,0.868c13.522,11.005 44.249,13.313 78.576,3.289c25.919,-7.569 24.264,-20.891 28.815,-16.667c4.175,3.875 40.946,38.002 51.835,48.824c0.523,0.519 0.873,0.867 -0.282,9.205c-0.455,3.282 -12.708,-1.991 -21.8,-4.79c-15.598,-4.803 -36.431,-1.073 -36.743,-0.986c-28.2,7.832 -28.539,16.703 -30.778,25.754c-0.52,2.101 -2.223,3.308 -2.803,6.689c-0.553,3.227 -1.333,2.246 2.329,4.85c1.272,0.905 3.298,2.097 2.806,2.301c-0.878,0.365 -4.795,1.817 -6.733,2.665c-7.19,3.149 -5.346,6.324 -10.384,46.322c-2.303,18.281 -4.564,-5.462 -10.494,-35.293c-1.464,-7.364 -5.672,-10.371 -13.611,-11.06c-6.255,-0.543 11.022,-5.452 4.782,-12.217c-4.201,-4.554 -2.995,-5.597 -3.704,-9.953c-0.56,-3.44 -8.689,-2.794 -9.544,-2.995c-10.95,-2.571 -13.693,-4.385 -18.488,-6.14c-7.42,-2.715 -6.689,-2.819 -13.76,-5.987c-2.669,-1.195 -4.76,-2.308 -10.743,-5.516Z" style="fill-opacity:1;"/><path d="M293.847,276.863c6.619,5.966 81.566,73.518 82.241,75.127c0.085,0.204 0.638,3.322 -2.706,0.556c-8.412,-6.957 -68.166,-56.375 -104.986,-87.166c-3.3,-2.759 -2.968,2.109 -16.384,6.393c-29.477,9.414 -70.205,-19.361 -51.716,-62.08c0.291,-0.672 -4.09,-4.175 -3.821,-4.66c0.201,-0.364 7.37,-9.503 8.239,-9.328c0.324,0.065 3.114,3.123 3.68,2.658c1.573,-1.294 7.938,-8.519 21.208,-11.833c34.232,-8.55 73.431,30.369 44.044,71.036c-0.59,0.816 0.215,0.867 20.201,19.298l-64.635,-29.907c2.989,-2.792 2.49,-4.063 6.518,-3.934c9.198,0.296 13.341,-8.873 10.39,-15.156c-1.79,-3.81 -0.07,-3.783 2.312,-7.242c0.587,-0.852 0.794,-0.349 1.443,0.441c6.943,8.448 2.795,17.507 2.9,18.099c0.193,1.085 13.699,12.77 14.931,13.835c1.187,1.027 12.325,-13.586 8.382,-31.473c-7.389,-33.512 -48.572,-35.404 -62.441,-18.663c-0.235,0.283 -0.363,0.636 12.81,12.575c1.85,1.677 2.12,0.898 4.513,0.125c7.586,-2.45 15.593,1.402 14.668,2.549c-2.877,3.567 -2.833,4.75 -7.266,3.689c-5.44,-1.302 -16.827,4.078 -11.212,16.059c0.281,0.599 -7.734,16.42 -7.765,16.947c-0.178,3.09 1.083,-14.867 0.894,-15.31c-3.038,-7.139 -0.551,-12.733 -0.322,-13.73c0.314,-1.369 -0.541,-1.123 -13.227,-11.548c-1.944,-1.597 -9.961,20.17 3.151,37.532c19.884,26.328 53.905,9.86 50.94,7.345c-13.87,-11.762 -13.916,-12.464 -15.293,-11.768c-1.001,0.506 -20.935,5.977 -25.009,9.413c-1.82,1.535 7.068,-8.025 8.684,-9.787l64.635,29.907Z" style="fill-opacity:1;"/><path d="M142.224,310.793c-9.049,-10.815 -47.17,-53.088 -9.191,-119.919c7.029,-12.369 7.532,-12.963 8.445,-12.204c6.481,5.385 21.133,15.618 22.195,17.105c1.358,1.901 -18.525,43.151 2.745,79.123c5.916,10.004 9.35,9.591 7.086,12.582c-20.128,26.586 -22.341,29.702 -22.908,30.315c-1.464,1.583 -4.876,-3.005 -8.373,-7.002Z" style="fill-opacity:1;"/><path d="M372.238,256.653c-30.907,-33.385 -61.814,-66.771 -92.721,-100.156c-27.22,-29.474 -34.343,-36.137 -28.345,-34.005c38.709,13.76 39.053,13.558 41.15,16.415c18.906,25.752 53.36,75.153 57.945,81.727c26.611,38.156 27.771,38.593 26.538,39.491c-1.146,0.835 -4.554,-3.458 -4.568,-3.473Z" style="fill-opacity:1;"/><path d="M336.647,240.127c10.265,12.748 10.757,12.753 10.44,14.396c-5.61,29.017 3.789,47.423 6.253,59.374c0.556,2.696 3.028,10.182 0.063,8.942c-10.514,-4.397 -10.356,-4.827 -15.044,-10.065c-0.726,-0.811 -0.712,-0.805 -9.047,-10.166c-15.39,-17.284 -16.299,-17.407 -15.517,-20.073c4.213,-14.36 9.666,-30.499 10.221,-48.573c0.042,-1.368 -0.8,-10.25 3.695,-4.762c4.5,5.493 4.422,5.485 8.936,10.928Z" style="fill-opacity:1;"/><path d="M301.468,195.033c7.649,9.105 2.089,3.819 -2.61,0.321c-43.355,-32.274 -44.815,-32.783 -58.196,-34.029c-5.27,-0.49 -18.116,3.746 -17.545,2.907c13.235,-19.436 16.744,-28.324 9.92,-47.607c-1.392,-3.933 -6.577,-10.633 8.236,6.951c13.881,16.485 46.315,54.973 60.196,71.457Z" style="fill-opacity:1;"/><path d="M145.813,148.93c4.47,3.509 48.513,38.198 48.665,38.445c0.342,0.555 -7.297,11.079 -8.18,10.553c-6.136,-3.654 -5.832,-4.034 -73.865,-50.145c-2.368,-1.605 -3.294,-1.396 -2.748,-4.137c0.192,-0.962 -5.784,-21.079 -5.854,-24.385c-0.02,-0.962 -1.982,-2.478 1.499,-3.085c1.528,-0.266 1.788,1.853 1.815,2.072c0.043,0.352 14.838,11.734 38.667,30.682Z" style="fill-opacity:1;"/><path d="M196.193,203.732c-4.75,8.511 -14.864,27.407 -3.3,50.946c18.096,36.836 68.106,30.314 67.997,32.38c-0.1,1.886 -41.349,2.422 -52.126,-4.663c-20.657,-13.578 -34.174,-28.342 -28.917,-61.06c4.475,-27.851 26.69,-42.412 38.422,-48.046c1.869,-0.898 13.406,1.493 12.391,1.999c-19.406,9.673 -23.939,13.785 -34.467,28.442Z" style="fill-opacity:1;"/><path d="M168.584,146.964c-0.761,-1.662 0.173,-1.597 3.336,-6.245c0.08,-0.117 0.166,-0.083 11.554,-34.107c9.914,-29.62 11.768,-33.794 11.48,-30.578c-0.162,1.817 2.504,74.524 2.603,81.007c0.038,2.466 -8.612,6.059 -7.655,3.779c7.185,-17.132 -8.802,-28.778 -21.318,-13.856Z" style="fill-opacity:1;"/><path d="M111.595,371.72c11.654,-12.901 66.077,-72.3 71.832,-78.581c1.981,-2.162 3.854,0.731 3.524,1.664c-0.231,0.653 -53.155,104.655 -53.417,105.154c-1.271,2.415 -28.751,11.906 -30.623,12.403c-0.621,0.165 8.336,-14.349 8.626,-14.958c3.415,-7.169 3.663,-11.646 0.059,-25.682Z" style="fill-opacity:1;"/><path d="M244.7,103.704c-1.211,-14.194 -2.709,-18.494 2.635,-40.465c1.548,-6.364 10.273,6.73 9.55,4.199c-8.131,-28.443 -9.247,-34.799 -10.059,-32.461c-12.294,35.4 -13.553,36.69 -12.762,37.395c3.049,2.716 8.099,12.434 10.636,31.332Z" style="fill-opacity:1;"/><path d="M245.917,219.14c4.728,-4.378 3.844,-5.264 5.849,-6.446c4.132,-2.435 -5.066,7.402 -7.866,13.46c-4.516,9.771 -3.556,8.607 -4.276,9.194c-4.846,3.957 -6.059,3.949 -20.291,21.35c-0.082,0.101 1.565,-1.85 3.877,-6.79c10.26,-21.921 7.047,-19.774 9.239,-20.906c7.494,-3.871 7.282,-4.116 13.466,-9.862Z" style="fill-opacity:1;"/><path d="M331.005,314.585c-0.393,-0.605 -0.398,-0.547 -0.393,-0.605c0.092,-1.128 0.926,-0.316 11.034,8.851c27.573,25.006 -9.828,-7.539 -10.641,-8.246Z" style="fill-opacity:0.71;"/></g><g transform="matrix(0,-1.08338,1.08338,0,353.925015,1681.215672)"><g transform="matrix(50,0,0,50,1540.519196,100.86057)"></g><text x="1495.964px" y="100.861px" style="font-family:'Wingdings3', 'Wingdings 3', serif;font-size:50px;">R</text><rect x="1495.964" y="81.329" width="44.556" height="2.441"/></g><g transform="matrix(0,1,-1,0,471.974246,354.277781)"><text x="58.848px" y="468.66px" style="font-family:'Wingdings3', 'Wingdings 3', serif;font-size:79.334px;">T</text></g><path d="M26.642,444.375l0,7.548" style="fill:none;stroke:#000;stroke-width:6.21px;stroke-linejoin:bevel;"/></svg>